<?xml version="1.0" encoding="UTF-8"?>
<svg width="64px" height="62px" viewBox="0 0 64 62" version="1.1" xmlns="http://www.w3.org/2000/svg" xmlns:xlink="http://www.w3.org/1999/xlink">
    <!-- Generator: Sketch 47.1 (45422) - http://www.bohemiancoding.com/sketch -->
    <title>icons/values/deal</title>
    <desc>Created with Sketch.</desc>
    <defs></defs>
    <g id="Page-1" stroke="none" stroke-width="1" fill="none" fill-rule="evenodd">
        <g id="01_hp-contries" transform="translate(-452.000000, -1829.000000)">
            <g id="content2" transform="translate(0.000000, 1594.000000)">
                <g id="1" transform="translate(294.000000, 225.000000)">
                    <g id="icons/values/deal" transform="translate(149.000000, 0.000000)">
                        <rect id="Rectangle-path" fill-rule="nonzero" x="1.15407407" y="1.15407407" width="79.6918519" height="79.6918519" rx="4"></rect>
                        <g id="Group" transform="translate(9.460370, 11.495185)" stroke="#163E66">
                            <path d="M4.59766407,32.0096719 C-0.91057963,24.0403196 -0.0752881481,13.0462152 7.0740337,5.89689333 C13.4023078,-0.431380741 23.12974,-1.58613815 30.7480867,2.0460063 C30.7480867,2.0460063 31.3453048,2.36140259 31.7451459,2.58726704" id="Shape"></path>
                            <path d="M41.1938085,20.7266237 L57.1559133,37.5087589 C58.5589181,39.0196089 58.73086,41.5600752 56.9219096,43.3690256 C55.2808315,45.0101037 52.7027211,45.0101037 51.061643,43.3690256 L50.0442356,42.3516181" id="Shape"></path>
                            <path d="M29.1741574,56.2880648 L30.6646593,57.7785667 C32.3057374,59.4196448 34.8838478,59.4196448 36.5249259,57.7785667 L36.5249259,57.7785667 C38.1660041,56.1374885 38.1660041,53.5593781 36.5249259,51.9183 L32.7208396,48.1142137" id="Shape"></path>
                            <path d="M43.4015826,47.0764581 C45.0426607,48.7175363 45.0426607,51.2956467 43.4015826,52.9367248 L43.4015826,52.9367248 C41.7605044,54.577803 39.1823941,54.577803 37.5413159,52.9367248 L36.5239085,51.9193174" id="Shape"></path>
                            <path d="M39.6636278,43.3395207 L44.2938489,47.9697419 C45.934927,49.61082 48.5201593,49.7349437 50.1612374,48.0938656 L50.1612374,48.0938656 C51.8023156,46.4527874 51.6842963,43.9916789 50.0442356,42.3516181 L45.347883,37.6552656" id="Shape"></path>
                            <path d="M47.3074096,17.740533 C40.1580878,24.8898548 27.1495167,17.6235311 27.1495167,17.6235311 C19.6491893,25.1238585 12.6168693,20.5536644 12.6168693,20.5536644 L27.1495167,6.02101704 C35.2358707,-1.94833519 48.2444419,-2.06533704 56.2137941,6.02101704 C64.1831463,14.1073711 63.9206552,27.3804681 55.951303,35.3498204 L55.5097481,35.7791663" id="Shape"></path>
                            <path d="M2.28204481,40.4490663 L2.28204481,40.4490663 C0.596200741,38.7632222 0.596200741,36.0304659 2.28204481,34.3446219 L6.12784481,30.4988219 C7.81368889,28.8129778 10.5464452,28.8129778 12.2322893,30.4988219 L12.2322893,30.4988219 C13.9181333,32.1846659 13.9181333,34.9174222 12.2322893,36.6032663 L8.38648926,40.4490663 C6.70064519,42.1349104 3.96687148,42.1349104 2.28204481,40.4490663 Z" id="Shape" stroke-linecap="square"></path>
                            <path d="M8.89519296,46.044807 L8.89519296,46.044807 C7.20934889,44.358963 7.20934889,41.6262067 8.89519296,39.9403626 L12.740993,36.0945626 C14.426837,34.4087185 17.1595933,34.4087185 18.8454374,36.0945626 L18.8454374,36.0945626 C20.5312815,37.7804067 20.5312815,40.513163 18.8454374,42.199007 L14.9996374,46.044807 C13.3137933,47.7306511 10.5800196,47.7306511 8.89519296,46.044807 Z" id="Shape" stroke-linecap="square"></path>
                            <path d="M15.5083411,51.6405478 L15.5083411,51.6405478 C13.822497,49.9547037 13.822497,47.2219474 15.5083411,45.5361033 L19.3541411,41.6903033 C21.0399852,40.0044593 23.7727415,40.0044593 25.4585856,41.6903033 L25.4585856,41.6903033 C27.1444296,43.3761474 27.1444296,46.1089037 25.4585856,47.7947478 L21.6127856,51.6405478 C19.9269415,53.3263919 17.1931678,53.3263919 15.5083411,51.6405478 Z" id="Shape" stroke-linecap="square"></path>
                            <path d="M22.1214893,57.2362885 L22.1214893,57.2362885 C20.4356452,55.5504444 20.4356452,52.8176881 22.1214893,51.1318441 L25.9672893,47.2860441 C27.6531333,45.6002 30.3858896,45.6002 32.0717337,47.2860441 L32.0717337,47.2860441 C33.7575778,48.9718881 33.7575778,51.7046444 32.0717337,53.3904885 L28.2259337,57.2362885 C26.5400896,58.9221326 23.8063159,58.9221326 22.1214893,57.2362885 Z" id="Shape" stroke-linecap="square"></path>
                        </g>
                    </g>
                </g>
            </g>
        </g>
    </g>
</svg>