<?xml version="1.0" encoding="UTF-8"?>
<svg width="86px" height="98px" viewBox="0 0 86 98" version="1.1" xmlns="http://www.w3.org/2000/svg" xmlns:xlink="http://www.w3.org/1999/xlink">
    <!-- Generator: Sketch 47.1 (45422) - http://www.bohemiancoding.com/sketch -->
    <title>rc-investment-logo</title>
    <desc>Created with Sketch.</desc>
    <defs></defs>
    <g id="Page-1" stroke="none" stroke-width="1" fill="none" fill-rule="evenodd">
        <g id="01_hp-comapnies" transform="translate(-677.000000, -26.000000)" fill-rule="nonzero" fill="#B48346">
            <g id="rc-investment-logo" transform="translate(677.000000, 26.000000)">
                <path d="M1.79621412,94.7835052 C1.79621412,96.8129602 1.75613024,97.0810015 0.57365591,97.2150221 L0.0726074635,97.2724595 C-0.0476441636,97.3873343 -0.00756028791,97.6936672 0.112691339,97.7511046 C1.11478823,97.712813 1.79621412,97.6936672 2.63797551,97.6936672 C3.43965302,97.6936672 4.12107891,97.712813 5.1231758,97.7511046 C5.24342743,97.6936672 5.28351131,97.3490427 5.16325968,97.2724595 L4.66221123,97.2150221 C3.4797369,97.0810015 3.43965302,96.8129602 3.43965302,94.7835052 L3.43965302,87.9675994 C3.43965302,85.9381443 3.4797369,85.6126657 4.66221123,85.5169367 L5.16325968,85.4786451 C5.28351131,85.4020619 5.24342743,85.0574374 5.1231758,85 C4.12107891,85.0382916 3.43965302,85.0574374 2.63797551,85.0574374 C1.79621412,85.0574374 1.11478823,85.0382916 0.112691339,85 C-0.00756028791,85.0574374 -0.0476441636,85.4020619 0.0726074635,85.4786451 L0.57365591,85.5169367 C1.75613024,85.6126657 1.79621412,85.9381443 1.79621412,87.9675994 L1.79621412,94.7835052 Z M7.96913098,95.5493373 C7.96913098,96.9278351 7.94908904,97.1192931 7.20753734,97.2150221 L6.78665664,97.2724595 C6.64636308,97.3681885 6.68644695,97.6936672 6.82674052,97.7511046 C7.38791478,97.712813 7.98917292,97.6936672 8.71068268,97.6936672 C9.4121505,97.6936672 9.9933667,97.712813 10.534499,97.7511046 C10.6747926,97.6936672 10.7148765,97.3681885 10.5745829,97.2724595 L10.213828,97.2150221 C9.49231825,97.1001473 9.45223438,96.9278351 9.45223438,95.5493373 L9.45223438,92.6200295 C9.45223438,92.0648012 9.49231825,91.7967599 9.75286345,91.4712813 C10.0334506,91.107511 10.6948345,90.8011782 11.4564282,90.8011782 C12.8192799,90.8011782 13.3403703,91.6053019 13.3403703,92.6966127 L13.3403703,95.5493373 C13.3403703,96.9278351 13.3203284,97.1001473 12.5787767,97.2150221 L12.1979799,97.2724595 C12.0576863,97.3681885 12.0977702,97.6936672 12.2380637,97.7511046 C12.7791961,97.712813 13.3804542,97.6936672 14.101964,97.6936672 C14.8034318,97.6936672 15.384648,97.712813 15.9859061,97.7511046 C16.1261997,97.6936672 16.1662836,97.3681885 16.02599,97.2724595 L15.5850674,97.2150221 C14.8635576,97.1192931 14.8234737,96.9278351 14.8234737,95.5493373 L14.8234737,92.2562592 C14.8234737,90.9734904 14.1420478,89.8821797 12.478567,89.8821797 C11.4564282,89.8821797 10.5144571,90.3608247 9.67269569,90.8586156 C9.53240213,90.8586156 9.45223438,90.7628866 9.45223438,90.6480118 C9.45223438,90.4756996 9.45223438,90.1885125 9.49231825,89.7481591 C9.45223438,89.65243 9.35202469,89.6141384 9.27185694,89.6141384 C8.87101818,89.9013255 7.72862772,90.3991163 7.26766315,90.5522828 C7.16745346,90.6097202 7.16745346,90.820324 7.24762121,90.8969072 L7.42799866,91.011782 C7.96913098,91.3564065 7.96913098,91.4521355 7.96913098,92.1988218 L7.96913098,95.5493373 Z M19.8540001,95.9322533 C20.1546292,96.640648 20.4552583,97.3873343 20.6155938,97.9234168 C20.6757196,97.9808542 20.7759293,98 20.876139,98 C20.9563067,98 21.0364745,97.9808542 21.0765583,97.9234168 C21.3371035,97.2724595 21.5375229,96.832106 21.7379423,96.353461 C22.0586133,95.5684831 23.3012134,92.7923417 23.5818006,92.275405 C24.1630168,91.2032401 24.3433942,90.7054492 25.044862,90.6097202 L25.3454911,90.5714286 C25.4657427,90.4565538 25.4457008,90.1693667 25.3054072,90.0927835 C24.744233,90.1310751 24.40352,90.1502209 23.9024716,90.1502209 C23.5216748,90.1502209 23.0206263,90.1310751 22.3993262,90.0927835 C22.2590327,90.1693667 22.2389907,90.437408 22.3592424,90.5714286 L22.8202069,90.628866 C23.0607102,90.6671576 23.1809618,90.7437408 23.1809618,90.916053 C23.1809618,91.0309278 23.1007941,91.4329897 22.8202069,92.1030928 L21.6778165,94.9175258 C21.517481,95.3195876 21.3771874,95.5876289 21.2970196,95.6450663 C21.2368938,95.5876289 21.1567261,95.4153166 20.9763486,95.0324006 C20.5153841,94.0368189 19.9341679,92.6966127 19.4732033,91.3755523 C19.2727839,90.8011782 19.2928259,90.7054492 19.9141259,90.6097202 L20.1546292,90.5714286 C20.2949228,90.4756996 20.2748808,90.1693667 20.1345873,90.0927835 C19.4531614,90.1310751 19.0523226,90.1502209 18.5111903,90.1502209 C17.8297644,90.1502209 17.1282966,90.1310751 16.6272481,90.0927835 C16.4669126,90.1502209 16.4468707,90.4182622 16.5671223,90.5714286 L16.9679611,90.628866 C17.6894708,90.724595 17.8698483,91.3372607 18.1704773,92.0456554 L19.8540001,95.9322533 Z M31.498366,92.7923417 L27.7906075,92.7923417 C27.2695171,92.7923417 27.2494752,92.8306333 27.2494752,93.3092784 C27.2494752,95.2430044 28.4319495,96.8895434 30.5764369,96.8895434 C31.2378208,96.8895434 31.7989951,96.6980854 32.4202952,95.9513991 C32.6207145,95.8939617 32.7610081,96.0088365 32.78105,96.1811487 C32.1196661,97.4830633 30.6766466,97.9617084 29.6344658,97.9617084 C28.3317398,97.9617084 27.309601,97.4256259 26.7283848,96.6980854 C26.1271267,95.9513991 25.8866234,95.0515464 25.8866234,94.2091311 C25.8866234,91.8541973 27.5100204,89.8821797 29.9150529,89.8821797 C31.6386596,89.8821797 32.7610081,91.011782 32.7610081,92.1605302 C32.7610081,92.4285714 32.7209242,92.5817378 32.6808403,92.6583211 C32.6207145,92.7731959 32.3401274,92.7923417 31.498366,92.7923417 Z M27.6102301,92.2179676 L29.0332077,92.2179676 C30.5163111,92.2179676 30.9572337,92.1413844 31.1175692,92.0265096 C31.177695,91.988218 31.2378208,91.9116348 31.2378208,91.6627393 C31.2378208,91.1266568 30.857024,90.4565538 29.6945916,90.4565538 C28.5121173,90.4565538 27.4899784,91.4904271 27.4699365,92.1222386 C27.4699365,92.1605302 27.4699365,92.2179676 27.6102301,92.2179676 Z M36.8495634,89.8821797 C35.3263761,89.8821797 34.1238599,90.6671576 34.1238599,92.0648012 C34.1238599,93.1178203 34.9455793,93.7879234 36.1080117,94.4197349 C36.8495634,94.8217968 37.6512409,95.3004418 37.6512409,96.1811487 C37.6512409,97.0044183 37.0299409,97.4064801 36.3084311,97.4064801 C35.1660406,97.4064801 34.5246986,96.4874816 34.1839857,95.4344624 C34.083776,95.3195876 33.8232308,95.3387334 33.7230211,95.4536082 C33.6829372,96.0854197 33.8031889,97.0235641 33.9635244,97.3873343 C34.4645728,97.7702504 35.1660406,97.9617084 36.1080117,97.9617084 C37.5911151,97.9617084 38.9940508,97.2341679 38.9940508,95.7790869 C38.9940508,94.4197349 38.0119958,93.7687776 36.9497731,93.1944035 C36.2483053,92.8114875 35.4065439,92.3902798 35.4065439,91.6053019 C35.4065439,90.916053 35.9075923,90.437408 36.6892279,90.437408 C37.5109474,90.437408 38.1122055,90.9926362 38.4529185,91.8350515 C38.5531281,91.9499264 38.8537572,91.9116348 38.933925,91.7776141 C38.933925,91.2606775 38.7936314,90.6480118 38.613254,90.2268041 C38.4328765,90.0736377 37.6913248,89.8821797 36.8495634,89.8821797 Z M45.4675967,90.9543446 C45.6479741,90.8394698 45.688058,90.3225331 45.4475548,90.1502209 L43.2228997,90.1502209 C42.8821867,90.1502209 42.8621448,90.1310751 42.8621448,89.7864507 L42.8621448,88.9248895 C42.781977,88.7908689 42.5414738,88.7908689 42.4412641,88.8291605 C42.2408447,89.2120766 41.8600479,89.7290133 41.5995027,89.9587629 C41.3990833,90.1310751 40.8980349,90.3799705 40.3168187,90.5522828 C40.2366509,90.6671576 40.2566929,90.8777614 40.3769445,90.9543446 L40.9381187,90.9543446 C41.3389575,90.9543446 41.3589994,90.9926362 41.3589994,91.5095729 L41.3589994,95.8939617 C41.3589994,97.0427099 41.7197543,97.9617084 43.443361,97.9617084 C44.4654998,97.9617084 45.1870096,97.4830633 45.5477645,97.0810015 C45.5878483,96.9661267 45.5076806,96.7555228 45.3473451,96.7555228 C45.2872193,96.7555228 45.0266741,96.9661267 44.8462966,97.0235641 C44.6859611,97.0810015 44.5055837,97.1192931 44.3051643,97.1192931 C42.9823964,97.1192931 42.8421028,96.1045655 42.8421028,94.994109 L42.8421028,91.4138439 C42.8421028,91.011782 42.8621448,90.9543446 43.2028577,90.9543446 L45.4675967,90.9543446 Z M58.3345208,95.5493373 C58.3345208,96.9278351 58.3144789,97.1001473 57.5729272,97.2150221 L57.2121723,97.2724595 C57.0718787,97.3681885 57.1119626,97.6936672 57.2522562,97.7511046 C57.8134304,97.712813 58.3545627,97.6936672 59.0760725,97.6936672 C59.7775403,97.6936672 60.3587565,97.712813 61.0201405,97.7511046 C61.160434,97.6936672 61.2005179,97.3681885 61.0602243,97.2724595 L60.5792178,97.2150221 C59.8577081,97.1192931 59.8176242,96.9278351 59.8176242,95.5493373 L59.8176242,92.2562592 C59.8176242,90.9351988 59.0359886,89.8821797 57.4326336,89.8821797 C56.4906625,89.8821797 55.5086076,90.3225331 54.70693,90.8586156 C54.5265526,90.9734904 54.386259,91.0500736 54.2058816,91.011782 C53.6447073,90.2268041 53.0835331,89.8821797 52.0814362,89.8821797 C51.1194232,89.8821797 50.1774521,90.3416789 49.4158585,90.8586156 C49.2755649,90.8586156 49.1953971,90.7628866 49.1953971,90.6480118 C49.1953971,90.4756996 49.1953971,90.1885125 49.235481,89.7481591 C49.1953971,89.65243 49.0951874,89.6141384 49.0150197,89.6141384 C48.6141809,89.9013255 47.4717905,90.3991163 47.0108259,90.5522828 C46.9106162,90.6097202 46.9106162,90.820324 46.990784,90.8969072 L47.1711614,91.011782 C47.7122937,91.3564065 47.7122937,91.4521355 47.7122937,92.1988218 L47.7122937,95.5493373 C47.7122937,96.9278351 47.6922518,97.1192931 46.9507001,97.2150221 L46.4696936,97.2724595 C46.3294,97.3681885 46.3694839,97.6936672 46.5097775,97.7511046 C47.1310775,97.712813 47.7323357,97.6936672 48.4538454,97.6936672 C49.1553133,97.6936672 49.7365295,97.712813 50.2776618,97.7511046 C50.4179553,97.6936672 50.4580392,97.3681885 50.3177457,97.2724595 L49.9569908,97.2150221 C49.235481,97.1001473 49.1953971,96.9278351 49.1953971,95.5493373 L49.1953971,92.5817378 C49.1953971,91.9690722 49.2956068,91.7201767 49.4960262,91.4904271 C49.7966553,91.1458027 50.3578295,90.8011782 51.179549,90.8011782 C52.4221491,90.8011782 53.0234073,91.4904271 53.0234073,92.7731959 L53.0234073,95.5493373 C53.0234073,96.9278351 53.0033653,97.1001473 52.2618136,97.2150221 L51.9010587,97.2724595 C51.7607652,97.3681885 51.8008491,97.6936672 51.9411426,97.7511046 C52.5023169,97.712813 53.0434492,97.6936672 53.764959,97.6936672 C54.4664268,97.6936672 55.047643,97.712813 55.6489011,97.7511046 C55.7891947,97.6936672 55.8292786,97.3681885 55.688985,97.2724595 L55.2681043,97.2150221 C54.5465945,97.1192931 54.5065107,96.9278351 54.5065107,95.5493373 L54.5065107,92.6200295 C54.5065107,91.9499264 54.5666365,91.7584683 54.8071397,91.4712813 C55.0877269,91.1266568 55.7090269,90.8011782 56.4706206,90.8011782 C57.7332627,90.8011782 58.3345208,91.4712813 58.3345208,92.7731959 L58.3345208,95.5493373 Z M67.8343993,92.7923417 L64.1266408,92.7923417 C63.6055505,92.7923417 63.5855085,92.8306333 63.5855085,93.3092784 C63.5855085,95.2430044 64.7679829,96.8895434 66.9124702,96.8895434 C67.5738541,96.8895434 68.1350284,96.6980854 68.7563285,95.9513991 C68.9567479,95.8939617 69.0970414,96.0088365 69.1170834,96.1811487 C68.4556994,97.4830633 67.0126799,97.9617084 65.9704991,97.9617084 C64.6677732,97.9617084 63.6456343,97.4256259 63.0644181,96.6980854 C62.46316,95.9513991 62.2226567,95.0515464 62.2226567,94.2091311 C62.2226567,91.8541973 63.8460537,89.8821797 66.2510863,89.8821797 C67.9746929,89.8821797 69.0970414,91.011782 69.0970414,92.1605302 C69.0970414,92.4285714 69.0569576,92.5817378 69.0168737,92.6583211 C68.9567479,92.7731959 68.6761607,92.7923417 67.8343993,92.7923417 Z M63.9462634,92.2179676 L65.369241,92.2179676 C66.8523444,92.2179676 67.293267,92.1413844 67.4536025,92.0265096 C67.5137283,91.988218 67.5738541,91.9116348 67.5738541,91.6627393 C67.5738541,91.1266568 67.1930573,90.4565538 66.0306249,90.4565538 C64.8481506,90.4565538 63.8260118,91.4904271 63.8059698,92.1222386 C63.8059698,92.1605302 63.8059698,92.2179676 63.9462634,92.2179676 Z M71.4219062,95.5493373 C71.4219062,96.9278351 71.4018643,97.1192931 70.6603126,97.2150221 L70.2394319,97.2724595 C70.0991383,97.3681885 70.1392222,97.6936672 70.2795158,97.7511046 C70.84069,97.712813 71.4419482,97.6936672 72.1634579,97.6936672 C72.8649257,97.6936672 73.4461419,97.712813 73.9872743,97.7511046 C74.1275678,97.6936672 74.1676517,97.3681885 74.0273581,97.2724595 L73.6666033,97.2150221 C72.9450935,97.1001473 72.9050096,96.9278351 72.9050096,95.5493373 L72.9050096,92.6200295 C72.9050096,92.0648012 72.9450935,91.7967599 73.2056387,91.4712813 C73.4862258,91.107511 74.1476098,90.8011782 74.9092034,90.8011782 C76.2720552,90.8011782 76.7931456,91.6053019 76.7931456,92.6966127 L76.7931456,95.5493373 C76.7931456,96.9278351 76.7731036,97.1001473 76.0315519,97.2150221 L75.6507551,97.2724595 C75.5104615,97.3681885 75.5505454,97.6936672 75.690839,97.7511046 C76.2319713,97.712813 76.8332294,97.6936672 77.5547392,97.6936672 C78.256207,97.6936672 78.8374232,97.712813 79.4386814,97.7511046 C79.5789749,97.6936672 79.6190588,97.3681885 79.4787652,97.2724595 L79.0378426,97.2150221 C78.3163328,97.1192931 78.276249,96.9278351 78.276249,95.5493373 L78.276249,92.2562592 C78.276249,90.9734904 77.5948231,89.8821797 75.9313422,89.8821797 C74.9092034,89.8821797 73.9672323,90.3608247 73.1254709,90.8586156 C72.9851774,90.8586156 72.9050096,90.7628866 72.9050096,90.6480118 C72.9050096,90.4756996 72.9050096,90.1885125 72.9450935,89.7481591 C72.9050096,89.65243 72.8047999,89.6141384 72.7246322,89.6141384 C72.3237934,89.9013255 71.181403,90.3991163 70.7204384,90.5522828 C70.6202287,90.6097202 70.6202287,90.820324 70.7003965,90.8969072 L70.8807739,91.011782 C71.4219062,91.3564065 71.4219062,91.4521355 71.4219062,92.1988218 L71.4219062,95.5493373 Z M85.8521015,90.9543446 C86.0324789,90.8394698 86.0725628,90.3225331 85.8320595,90.1502209 L83.6074044,90.1502209 C83.2666915,90.1502209 83.2466495,90.1310751 83.2466495,89.7864507 L83.2466495,88.9248895 C83.1664818,88.7908689 82.9259785,88.7908689 82.8257689,88.8291605 C82.6253495,89.2120766 82.2445527,89.7290133 81.9840075,89.9587629 C81.7835881,90.1310751 81.2825396,90.3799705 80.7013234,90.5522828 C80.6211557,90.6671576 80.6411976,90.8777614 80.7614493,90.9543446 L81.3226235,90.9543446 C81.7234623,90.9543446 81.7435042,90.9926362 81.7435042,91.5095729 L81.7435042,95.8939617 C81.7435042,97.0427099 82.1042591,97.9617084 83.8278657,97.9617084 C84.8500046,97.9617084 85.5715143,97.4830633 85.9322692,97.0810015 C85.9723531,96.9661267 85.8921853,96.7555228 85.7318498,96.7555228 C85.671724,96.7555228 85.4111788,96.9661267 85.2308014,97.0235641 C85.0704659,97.0810015 84.8900885,97.1192931 84.6896691,97.1192931 C83.3669012,97.1192931 83.2266076,96.1045655 83.2266076,94.994109 L83.2266076,91.4138439 C83.2266076,91.011782 83.2466495,90.9543446 83.5873625,90.9543446 L85.8521015,90.9543446 Z" id="Investment"></path>
                <path d="M14.682243,19.0525665 L13,19.0525665 L13,17.3815467 L14.682243,17.3815467 L14.682243,17 C14.682243,17.3726855 14.682243,17.7758143 14.682243,18.5977621 L14.682243,19.0525665 Z M14.682243,18.5977621 C14.682243,18.9578278 14.682243,19.3982647 14.682243,19.9517217 L14.682243,40.2079635 C14.682243,57.2283838 24.5052145,69.4426522 43.5232832,75.8635553 C62.4822377,70.4923133 72.2759691,58.3022346 72.2759691,40.2079635 L72.2759691,19.0525665 L14.682243,19.0525665 L14.682243,18.5977621 Z M73.9582121,17.3815467 L73.9582121,40.2079635 C73.9582121,59.2312637 63.4791062,72.1069535 43.4791061,77.6116776 C23.479106,71.0087787 13,58.1330889 13,40.2079635 L13,17.3815467 L73.9582121,17.3815467 Z" id="Rectangle-8"></path>
                <path d="M10,20.4122452 L77,20.4122452 L77,39.7912771 C77,61.0982222 65.8333333,74.8344631 43.5,81 C21.1666667,73.6044587 10,59.8682178 10,39.7912771 L10,20.4122452 Z M75.325,22.0937759 L75.325,21.947467 C75.325,21.4750714 75.325,20.9673934 75.325,20.4118569 L77,20.4122452 L77,19 L77,22.0937759 L75.325,22.0937759 Z M75.325,21.947467 L11.675,22.0937759 C11.675,26.4431959 11.675,27.8827586 11.675,39.7912771 C11.675,58.9564576 22.1860198,72.0284413 43.5437179,79.2422422 C64.8431532,73.2100097 75.325,60.1624122 75.325,39.7912771 C75.325,27.9824006 75.325,26.9181121 75.325,21.947467 Z" id="Rectangle-8"></path>
                <path d="M11.675,2.72867525 L11.675,17.3235294 L75.325,17.3235294 L75.325,2.73061347 L60.5102933,10.254441 L43.2999408,1.86928628 L26.5259566,10.2590793 L11.675,2.72867525 Z M10,0 L26.5311128,8.38235294 L43.2902218,0 L60.4948236,8.38235294 L77,0 L77,19 L10,19 L10,0 Z" id="Rectangle-13"></path>
                <path d="M14.682243,8.38298415 L14.682243,20.337407 L72.2759691,20.337407 L72.2759691,8.44134577 L60.5031108,14.1757012 L42.8129607,5.85160904 L26.122947,14.1782764 L14.682243,8.38298415 Z M13,22 L13,5.66259305 L26.1287494,12.3129652 L42.7912984,4 L60.4578018,12.3129652 L73.9582121,5.66259305 L73.9582121,22 L13,22 Z" id="Rectangle-13"></path>
                <path d="M26,51.0349162 L27.570018,51.0349162 L27.570018,33.9944134 L26,33.9944134 L26,32.2346369 L32.2208259,32.2346369 C32.8725347,32.2346369 33.5834791,32.3372895 34.3536804,32.5425978 C35.1238818,32.7479061 35.8496375,33.0705286 36.5309695,33.5104749 C37.2123014,33.9504212 37.7800696,34.5125664 38.2342908,35.1969274 C38.6885121,35.8812883 38.9156194,36.7122856 38.9156194,37.6899441 C38.9156194,39.1368787 38.5403987,40.3393807 37.7899461,41.297486 C37.0394936,42.2555914 35.9533285,42.8910599 34.5314183,43.2039106 L38.2342908,51.0349162 L40.929982,51.0349162 L40.929982,52.7653631 L37.0789946,52.7653631 L32.5763016,43.3212291 C32.3590653,43.3407822 32.1418323,43.3505587 31.9245961,43.3505587 L29.4066427,43.3505587 L29.4066427,51.0349162 L32.5763016,51.0349162 L32.5763016,52.7653631 L26,52.7653631 L26,51.0349162 Z M29.4066427,41.5907821 L32.2208259,41.5907821 C33.1687659,41.5907821 33.9587042,41.4685767 34.5906643,41.224162 C35.2226244,40.9797474 35.7212729,40.6669013 36.0866248,40.2856145 C36.4519767,39.9043277 36.7087066,39.4839408 36.8568223,39.0244413 C37.0049379,38.5649419 37.0789946,38.1201139 37.0789946,37.6899441 C37.0789946,37.2011149 36.9555667,36.7318458 36.7087074,36.2821229 C36.461848,35.8324 36.1261242,35.4413425 35.701526,35.1089385 C35.2769278,34.7765346 34.7684051,34.5076826 34.1759425,34.3023743 C33.58348,34.097066 32.9416552,33.9944134 32.2504488,33.9944134 L29.4066427,33.9944134 L29.4066427,41.5907821 Z M57.2226212,36.7513966 L57.2226212,34.5810056 C56.0771938,34.0335168 54.8626637,33.7597765 53.5789946,33.7597765 C52.3743207,33.7597765 51.2437216,33.9895229 50.1871634,34.4490223 C49.1306051,34.9085218 48.2073648,35.5391021 47.4174147,36.3407821 C46.6274646,37.1424621 46.0004511,38.076112 45.5363555,39.1417598 C45.0722598,40.2074076 44.8402154,41.3365862 44.8402154,42.5293296 C44.8402154,43.7416262 45.0673227,44.8756931 45.521544,45.9315642 C45.9757653,46.9874354 46.5978417,47.9113089 47.3877917,48.7032123 C48.1777418,49.4951157 49.1009822,50.1208078 50.1575404,50.5803073 C51.2140986,51.0398068 52.3446977,51.2695531 53.5493716,51.2695531 C54.3590703,51.2695531 55.1292601,51.1669005 55.8599641,50.9615922 C56.5906681,50.7562839 57.2917382,50.4581025 57.9631957,50.0670391 L58.970377,51.5335196 C58.180427,51.9832425 57.3361803,52.3400825 56.4376122,52.6040503 C55.5390441,52.8680181 54.5861809,53 53.5789946,53 C52.117587,53 50.7450693,52.7262597 49.4614004,52.1787709 C48.1777315,51.6312822 47.0570066,50.8833846 46.0991921,49.9350559 C45.1413776,48.9867271 44.3859992,47.8771013 43.8330341,46.6061453 C43.2800691,45.3351892 43.0035907,43.9762642 43.0035907,42.5293296 C43.0035907,41.082395 43.2800691,39.7185818 43.8330341,38.4378492 C44.3859992,37.1571165 45.1413776,36.0426025 46.0991921,35.0942737 C47.0570066,34.145945 48.1777315,33.3931592 49.4614004,32.8358939 C50.7450693,32.2786285 52.117587,32 53.5789946,32 C54.5861809,32 55.5390441,32.1270937 56.4376122,32.3812849 C57.3361803,32.6354761 58.1903014,32.9972044 59,33.4664804 L59,36.7513966 L57.2226212,36.7513966 Z" id="RC"></path>
            </g>
        </g>
    </g>
</svg>